<?xml version="1.0" encoding="UTF-8" standalone="no"?>
<!-- Created with Inkscape (http://www.inkscape.org/) -->

<svg
   xmlns:dc="http://purl.org/dc/elements/1.1/"
   xmlns:cc="http://creativecommons.org/ns#"
   xmlns:rdf="http://www.w3.org/1999/02/22-rdf-syntax-ns#"
   xmlns:svg="http://www.w3.org/2000/svg"
   xmlns="http://www.w3.org/2000/svg"
   xmlns:sodipodi="http://sodipodi.sourceforge.net/DTD/sodipodi-0.dtd"
   xmlns:inkscape="http://www.inkscape.org/namespaces/inkscape"
   width="210mm"
   height="297mm"
   id="svg2"
   version="1.1"
   inkscape:version="0.48.4 r9939"
   sodipodi:docname="Documento nuevo 1">
  <defs
     id="defs4" />
  <sodipodi:namedview
     id="base"
     pagecolor="#ffffff"
     bordercolor="#666666"
     borderopacity="1.0"
     inkscape:pageopacity="0.0"
     inkscape:pageshadow="2"
     inkscape:zoom="0.49497475"
     inkscape:cx="238.36917"
     inkscape:cy="708.64181"
     inkscape:document-units="px"
     inkscape:current-layer="layer1"
     showgrid="false"
     showguides="true"
     inkscape:guide-bbox="true"
     inkscape:window-width="1366"
     inkscape:window-height="745"
     inkscape:window-x="-8"
     inkscape:window-y="-8"
     inkscape:window-maximized="1">
    <sodipodi:guide
       orientation="0,1"
       position="888.57143,94.285714"
       id="guide3806" />
  </sodipodi:namedview>
  <metadata
     id="metadata7">
    <rdf:RDF>
      <cc:Work
         rdf:about="">
        <dc:format>image/svg+xml</dc:format>
        <dc:type
           rdf:resource="http://purl.org/dc/dcmitype/StillImage" />
        <dc:title></dc:title>
      </cc:Work>
    </rdf:RDF>
  </metadata>
  <g
     inkscape:label="Capa 1"
     inkscape:groupmode="layer"
     id="layer1">
    <g
       id="g3786"
       transform="matrix(1.2589928,0,0,1.2589928,-74.614595,-300.13903)"
       inkscape:export-filename="D:\Escritorio\KeyMouse.png"
       inkscape:export-xdpi="90"
       inkscape:export-ydpi="90">
      <path
         inkscape:connector-curvature="0"
         id="path2985"
         d="M 208.57143,609.50504 454.28571,452.36218 542.85714,560.93361 300,740.93361 z"
         style="fill:#999999;stroke:#000000;stroke-width:6;stroke-linecap:butt;stroke-linejoin:miter;stroke-miterlimit:4;stroke-opacity:1;stroke-dasharray:none" />
      <path
         inkscape:connector-curvature="0"
         id="path2987"
         d="m 466.69048,602.8443 -13.13199,-13.63706 16.16244,-13.13198 -12.6269,-12.12183 16.16244,-12.62691 12.12183,11.61675 14.14213,-10.6066 15.65737,13.63706 z"
         style="fill:#f2f2f2;stroke:#000000;stroke-width:1px;stroke-linecap:butt;stroke-linejoin:miter;stroke-opacity:1" />
      <path
         inkscape:connector-curvature="0"
         id="path2989"
         d="m 381.83766,548.29606 23.23351,-18.68782 21.2132,27.27412 -14.64721,9.09137 -9.09137,-13.13198 -13.63706,9.09137 z"
         style="fill:#f2f2f2;stroke:#000000;stroke-width:1px;stroke-linecap:butt;stroke-linejoin:miter;stroke-opacity:1" />
      <path
         inkscape:connector-curvature="0"
         id="path2991"
         d="M 342.94679,680.62605 429.31483,617.99659 417.193,603.85445 330.82496,669.00929 z"
         style="fill:#f2f2f2;stroke:#000000;stroke-width:1px;stroke-linecap:butt;stroke-linejoin:miter;stroke-opacity:1" />
      <path
         inkscape:connector-curvature="0"
         id="path2993"
         d="m 417.193,499.30366 38.3858,-26.26396 38.38579,43.94163 -35.86041,26.26397 z"
         style="fill:#f2f2f2;stroke:#000000;stroke-width:1px;stroke-linecap:butt;stroke-linejoin:miter;stroke-opacity:1" />
      <path
         sodipodi:nodetypes="cc"
         inkscape:connector-curvature="0"
         id="path2995"
         d="m 431.46141,489.45467 38.7646,45.70941"
         style="fill:#f2f2f2;stroke:#000000;stroke-width:1px;stroke-linecap:butt;stroke-linejoin:miter;stroke-opacity:1" />
      <path
         sodipodi:nodetypes="cc"
         inkscape:connector-curvature="0"
         id="path2997"
         d="m 440.93159,482.63615 40.40609,43.94163"
         style="fill:#f2f2f2;stroke:#000000;stroke-width:1px;stroke-linecap:butt;stroke-linejoin:miter;stroke-opacity:1" />
      <path
         sodipodi:nodetypes="cc"
         inkscape:connector-curvature="0"
         id="path2999"
         d="M 446.73996,531.12347 482.85292,504.8595"
         style="fill:#f2f2f2;stroke:#000000;stroke-width:1px;stroke-linecap:butt;stroke-linejoin:miter;stroke-opacity:1" />
      <path
         sodipodi:nodetypes="cc"
         inkscape:connector-curvature="0"
         id="path3001"
         d="M 435.24947,519.63299 472.75139,492.2326"
         style="fill:#f2f2f2;stroke:#000000;stroke-width:1px;stroke-linecap:butt;stroke-linejoin:miter;stroke-opacity:1" />
      <path
         sodipodi:nodetypes="cc"
         inkscape:connector-curvature="0"
         id="path3003"
         d="m 424.76915,507.88996 38.63833,-26.26397"
         style="fill:#f2f2f2;stroke:#000000;stroke-width:1px;stroke-linecap:butt;stroke-linejoin:miter;stroke-opacity:1" />
      <path
         inkscape:connector-curvature="0"
         id="path3005"
         d="m 285.86485,484.88515 -12.59375,6.4375 c 0.18955,5.55978 0.38924,11.12717 0.0625,16.6875 -0.40208,7.3651 -0.67262,14.86765 -3.625,21.75 -2.32923,5.16426 -4.88511,9.49378 -9.4375,13.03125 -2.9709,2.47049 -6.12736,4.68961 -9.375,6.75 -3.18631,1.71738 -7.723,4.16777 -9.84375,5.125 -4.83293,2.23926 -9.70351,4.38413 -14.84375,5.84375 -5.57059,1.74971 -11.07292,3.78779 -16.75,5.1875 -8.59906,3.19731 -16.42612,6.31667 -24.0625,12.0625 -2.78084,1.93406 -5.35067,4.17516 -7.34375,6.9375 -2.02184,2.89792 -3.68411,6.05344 -5.90625,8.8125 -2.07933,2.97919 -3.97447,6.07537 -5.3125,9.46875 -1.33042,3.43941 -2.58669,6.92595 -2.71875,10.65625 -0.003,4.12918 -0.0394,8.24616 0.0312,12.375 0.0946,4.17205 0.31692,8.34905 1.21875,12.4375 1.14114,5.00472 2.54697,9.96442 4.5,14.71875 2.36814,5.45351 4.77456,10.92494 7.84375,16.03125 2.93153,4.8702 6.27544,9.47202 10.0625,13.71875 2.7433,2.77167 4.82394,4.44487 8.875,4.03125 5.6534,-0.24805 11.3017,-0.64661 16.9375,-1.15625 6.06341,-0.66762 12.22521,-1.0513 18.03125,-3.09375 2.68074,-1.26073 5.45489,-2.34499 8.125,-3.625 0.59403,-0.28477 1.15144,-0.6624 1.75,-0.9375 0.46911,-0.21559 0.9528,-0.35347 1.4375,-0.53125 l 11.71875,-9.375 c -3.78278,1.84637 -7.62862,3.55908 -11.46875,5.28125 -5.67762,2.43832 -11.86724,2.93748 -17.9375,3.59375 -5.53477,0.61287 -11.09205,0.9273 -16.65625,1.09375 -3.83477,0.27882 -5.43089,-0.4578 -8.3125,-3 -3.84497,-4.02106 -7.06662,-8.5928 -9.9375,-13.34375 -3.03351,-5.05277 -5.44001,-10.40271 -7.75,-15.8125 -1.7823,-4.72281 -3.24776,-9.58945 -4.28125,-14.53125 -0.80095,-4.02841 -0.93805,-8.12669 -1.03125,-12.21875 -0.04,-4.11592 -0.0173,-8.22769 0,-12.34375 0.34345,-3.57842 1.66783,-6.88813 3,-10.1875 1.40266,-3.28907 3.32624,-6.25687 5.4375,-9.125 1.69411,-1.81458 2.67782,-4.1406 4.03125,-6.1875 0.60164,-0.9099 1.27368,-1.76757 1.90625,-2.65625 0.75623,-0.92709 1.60108,-1.78853 2.46875,-2.59375 1.26097,-0.48533 2.52051,-0.95716 3.78125,-1.4375 5.63778,-1.66042 11.21686,-3.54822 16.8125,-5.34375 5.1246,-1.47101 10.04013,-3.42874 14.875,-5.65625 9.76833,-4.62531 19.00797,-10.15702 28.34375,-15.59375 5.64444,-3.0678 10.99219,-6.59521 15.8125,-10.84375 4.58952,-3.54366 7.03576,-8.4037 9.21875,-13.625 2.82081,-7.01151 2.86437,-14.6204 3,-22.0625 0.13768,-5.58344 0.01,-11.16765 -0.0937,-16.75 z"
         style="fill:#000000;fill-opacity:1;stroke:none" />
      <path
         inkscape:connector-curvature="0"
         d="m 284.25566,658.79159 c 2.74509,1.25757 5.61985,2.20597 8.35271,3.49173 0.6512,0.30638 1.28566,0.64712 1.92849,0.97068 0.56841,0.34602 1.17704,0.6333 1.70523,1.03806 2.09105,1.60241 3.57731,3.86945 4.96939,6.05838 1.69855,2.67084 1.71961,2.83868 3.2541,5.69133 2.24697,4.59241 4.28459,9.3227 5.68934,14.248 0.18277,0.64081 0.33402,1.29019 0.50103,1.93529 0.42818,1.82556 0.68634,3.70351 0.64456,5.58215 -0.0158,0.70851 -0.0792,1.18326 -0.15233,1.87872 -0.20664,1.68749 -0.5894,3.3488 -0.91278,5.01706 -0.41119,1.76298 -0.59871,3.56221 -0.7149,5.36507 -0.0304,0.78977 -0.17284,1.5675 -0.30215,2.34513 0,0 -3.28782,1.60118 -3.28782,1.60118 l 0,0 c 0.15419,-0.77767 0.33349,-1.55363 0.39466,-2.34588 0.13362,-1.8149 0.34778,-3.62697 0.70974,-5.41154 0.32504,-1.66319 0.68622,-3.32153 0.93187,-4.99852 0.0783,-0.56107 0.19293,-1.31522 0.23044,-1.87425 0.12613,-1.87946 -0.0736,-3.76903 -0.40312,-5.61771 -0.37889,-1.83933 -0.46119,-2.39869 -0.9988,-4.27998 -1.18744,-4.15527 -2.8165,-8.1856 -4.82503,-12.01086 -2.26395,-4.02077 -4.68801,-8.59626 -8.46645,-11.41718 -0.52169,-0.38949 -1.10212,-0.69337 -1.65319,-1.04005 -0.62899,-0.32492 -1.24655,-0.67298 -1.88696,-0.97475 -2.81306,-1.32556 -5.79387,-2.28585 -8.75867,-3.2024 0,0 3.05064,-2.04966 3.05064,-2.04966 z"
         id="path3776"
         style="fill:#f2f2f2;fill-opacity:1;stroke:none" />
      <path
         inkscape:connector-curvature="0"
         d="m 276.61473,656.60955 c -0.0984,-1.66377 -0.33836,-3.31639 -0.65579,-4.95116 -0.50142,-2.55048 -1.2228,-5.04957 -2.24126,-7.44062 -1.26748,-2.76021 -3.1197,-5.17037 -5.05206,-7.48957 -2.86657,-3.33626 -6.18938,-6.23188 -9.51486,-9.09497 -2.65396,-2.14135 -5.31863,-4.30664 -8.25721,-6.05395 -0.44503,-0.26461 -0.90481,-0.50357 -1.35722,-0.75536 -1.21536,-0.59698 -2.475,-1.11879 -3.83113,-1.28163 -1.65574,-0.19882 -3.34333,-0.01 -4.99213,0.1343 -0.62896,0.0842 -1.25793,0.1683 -1.88689,0.25245 0,0 2.62705,-1.96076 2.62705,-1.96076 l 0,0 c 0.62841,-0.0784 1.25682,-0.15686 1.88523,-0.23528 1.71038,-0.15753 3.47777,-0.40359 5.19498,-0.15536 1.36177,0.19685 2.61937,0.78525 3.8285,1.40885 0.44983,0.26177 0.90927,0.5077 1.3495,0.78532 2.88161,1.81722 5.43379,4.11033 8.11775,6.19299 3.34286,2.89434 6.70224,5.78736 9.71298,9.03442 1.9777,2.32663 3.81893,4.78441 5.17761,7.53261 0.17109,0.39748 0.35729,0.7888 0.51326,1.19246 0.78727,2.03748 1.25828,4.18301 1.7902,6.29523 0.33424,1.60115 0.61043,3.21295 0.89566,4.82347 0,0 -3.30417,1.76656 -3.30417,1.76656 z"
         id="path3778"
         style="fill:#f2f2f2;fill-opacity:1;stroke:none" />
      <path
         inkscape:connector-curvature="0"
         d="m 278.92197,649.06106 c 0.1651,-3.03817 0.17963,-6.10148 -0.0986,-9.13446 -0.0907,-0.9884 -0.23695,-1.97092 -0.35542,-2.95638 -0.63046,-3.44906 -1.31178,-7.02237 -3.07525,-10.10878 -1.23694,-2.16492 -1.75696,-2.46493 -3.55757,-4.37713 -4.74958,-4.34554 -10.26941,-7.71595 -15.71113,-11.10924 0,0 2.6974,-1.72749 2.6974,-1.72749 l 0,0 c 5.21674,3.70311 10.60155,7.19358 15.51103,11.3078 2.00231,1.91976 2.49135,2.08137 3.79304,4.35888 1.78733,3.12724 2.28778,6.79399 2.9893,10.26295 0.14281,0.97884 0.30797,1.95468 0.42845,2.93652 0.36141,2.94529 0.4327,5.91307 0.67453,8.86804 0,0 -3.2958,1.67929 -3.2958,1.67929 z"
         id="path3780"
         style="fill:#f2f2f2;fill-opacity:1;stroke:none" />
      <path
         inkscape:connector-curvature="0"
         d="m 286.25509,654.71625 c 1.36554,-0.4401 2.7861,-0.59521 4.20909,-0.70387 0.46896,0.0331 0.94213,0.0284 1.40686,0.0994 1.38434,0.21148 3.4962,0.78819 4.77265,1.14368 2.97516,0.82857 5.90094,1.79635 8.82809,2.7778 2.85819,1.08043 5.97249,2.07263 8.01198,4.50551 1.27983,1.52669 2.41667,3.73936 3.37344,5.42116 2.86603,5.41707 5.62921,10.8994 8.14674,16.48874 1.00875,2.23961 2.12857,4.97169 3.08141,7.2614 0.95801,2.27409 1.7898,4.59651 2.59852,6.92651 0,0 -2.87341,1.5726 -2.87341,1.5726 l 0,0 c -0.63179,-2.40536 -1.31295,-4.79725 -2.17798,-7.13183 -1.15208,-3.14269 -1.49221,-4.18883 -2.85323,-7.37191 -2.40688,-5.62906 -5.22587,-11.07323 -8.37384,-16.32275 -1.26283,-1.95178 -2.10662,-3.46432 -3.65299,-5.15547 -2.07692,-2.27134 -4.95846,-3.42821 -7.76137,-4.51406 -2.91666,-1.0254 -5.8305,-2.01 -8.84051,-2.73361 -1.67302,-0.40219 -3.32309,-0.74546 -5.03919,-0.87744 -0.48749,-0.0375 -0.97785,-7.9e-4 -1.46678,-0.001 -1.4868,0.16067 -2.95416,0.39965 -4.37662,0.87706 0,0 2.98714,-2.2617 2.98714,-2.2617 z"
         id="path3782"
         style="fill:#f2f2f2;fill-opacity:1;stroke:none" />
      <path
         transform="translate(38.638335,9.3439111)"
         d="m 247.73991,645.39697 c 0,3.97498 -3.22236,7.19734 -7.19734,7.19734 -3.97498,0 -7.19733,-3.22236 -7.19733,-7.19734 0,-3.97498 3.22235,-7.19733 7.19733,-7.19733 3.97498,0 7.19734,3.22235 7.19734,7.19733 z"
         sodipodi:ry="7.1973367"
         sodipodi:rx="7.1973367"
         sodipodi:cy="645.39697"
         sodipodi:cx="240.54257"
         id="path3784"
         style="fill:#ff0000;fill-opacity:1;stroke:none"
         sodipodi:type="arc" />
    </g>
  </g>
</svg>
